<mxfile host="app.diagrams.net" modified="2023-04-25T21:04:30.392Z" agent="Mozilla/5.0 (X11; Linux x86_64) AppleWebKit/537.36 (KHTML, like Gecko) Chrome/108.0.0.0 Safari/537.36" etag="ra-KaJFS9kPa-ChHRlPA" version="21.2.2" type="device">
  <diagram name="Page-1" id="LyqZY6KkNUmO3at2b9Nw">
    <mxGraphModel dx="1783" dy="397" grid="0" gridSize="10" guides="1" tooltips="1" connect="1" arrows="1" fold="1" page="1" pageScale="1" pageWidth="1100" pageHeight="850" math="0" shadow="0">
      <root>
        <mxCell id="0" />
        <mxCell id="1" parent="0" />
        <mxCell id="tiBrjMvVy3Kj4YKHYdIc-1" value="camera detects the object" style="rounded=1;whiteSpace=wrap;html=1;fontSize=7;fillColor=#647687;strokeColor=#314354;fontColor=#ffffff;" parent="1" vertex="1">
          <mxGeometry x="-690" y="270" width="90" height="36" as="geometry" />
        </mxCell>
        <mxCell id="tiBrjMvVy3Kj4YKHYdIc-2" value="sends the location of where it will be, and the ticks count to the location" style="rounded=1;whiteSpace=wrap;html=1;fontSize=7;fillColor=#647687;strokeColor=#314354;fontColor=#ffffff;" parent="1" vertex="1">
          <mxGeometry x="-690" y="310" width="90" height="40" as="geometry" />
        </mxCell>
        <mxCell id="tiBrjMvVy3Kj4YKHYdIc-3" value="robot will move to the location and wait for the object to come " style="rounded=1;whiteSpace=wrap;html=1;fontSize=7;fillColor=#647687;strokeColor=#314354;fontColor=#ffffff;" parent="1" vertex="1">
          <mxGeometry x="-690" y="357.5" width="90" height="36" as="geometry" />
        </mxCell>
        <mxCell id="tiBrjMvVy3Kj4YKHYdIc-4" value="" style="rounded=1;whiteSpace=wrap;html=1;fontSize=7;" parent="1" vertex="1">
          <mxGeometry x="10" y="800" width="90" height="36" as="geometry" />
        </mxCell>
        <mxCell id="tiBrjMvVy3Kj4YKHYdIc-5" value="" style="rounded=1;whiteSpace=wrap;html=1;fontSize=7;" parent="1" vertex="1">
          <mxGeometry x="10" y="740" width="90" height="36" as="geometry" />
        </mxCell>
        <mxCell id="tiBrjMvVy3Kj4YKHYdIc-6" value="if no answer from the pc then move to neutral pick position " style="rounded=1;whiteSpace=wrap;html=1;fontSize=7;fillColor=#647687;strokeColor=#314354;fontColor=#ffffff;" parent="1" vertex="1">
          <mxGeometry x="-690" y="560" width="90" height="36" as="geometry" />
        </mxCell>
        <mxCell id="tiBrjMvVy3Kj4YKHYdIc-7" value="Robot sends the encoder tickcount to pc" style="rounded=1;whiteSpace=wrap;html=1;fontSize=7;fillColor=#647687;strokeColor=#314354;fontColor=#ffffff;" parent="1" vertex="1">
          <mxGeometry x="-690" y="230" width="90" height="36" as="geometry" />
        </mxCell>
        <mxCell id="tiBrjMvVy3Kj4YKHYdIc-8" value="computer sends the location of the next object " style="rounded=1;whiteSpace=wrap;html=1;fontSize=7;fillColor=#647687;strokeColor=#314354;fontColor=#ffffff;" parent="1" vertex="1">
          <mxGeometry x="-690" y="520" width="90" height="36" as="geometry" />
        </mxCell>
        <mxCell id="tiBrjMvVy3Kj4YKHYdIc-9" value="it will pick the object" style="rounded=1;whiteSpace=wrap;html=1;fontSize=7;fillColor=#647687;strokeColor=#314354;fontColor=#ffffff;" parent="1" vertex="1">
          <mxGeometry x="-690" y="399" width="90" height="36" as="geometry" />
        </mxCell>
        <mxCell id="tiBrjMvVy3Kj4YKHYdIc-10" value="&lt;div style=&quot;font-size: 7px;&quot;&gt;if not picked up send signal, not picked &lt;br style=&quot;font-size: 7px;&quot;&gt;&lt;/div&gt;" style="rounded=1;whiteSpace=wrap;html=1;fontSize=7;fillColor=#647687;strokeColor=#314354;fontColor=#ffffff;" parent="1" vertex="1">
          <mxGeometry x="-690" y="480" width="90" height="36" as="geometry" />
        </mxCell>
        <mxCell id="tiBrjMvVy3Kj4YKHYdIc-11" value="if picked up then go and drop and send signal dropped&amp;nbsp; " style="rounded=1;whiteSpace=wrap;html=1;fontSize=7;fillColor=#647687;strokeColor=#314354;fontColor=#ffffff;" parent="1" vertex="1">
          <mxGeometry x="-690" y="440.5" width="90" height="36" as="geometry" />
        </mxCell>
        <mxCell id="TQ_MRLcAaZdKzZCNnS61-11" value="&lt;div&gt;&lt;font style=&quot;font-size: 6px;&quot;&gt;- Get the X and &lt;/font&gt;&lt;font style=&quot;font-size: 6px;&quot;&gt;Y of the centerpoint &lt;br&gt;&lt;/font&gt;&lt;/div&gt;&lt;div&gt;&lt;font style=&quot;font-size: 6px;&quot;&gt;- Change the location based on the robots view&lt;/font&gt;&lt;/div&gt;&lt;div&gt;&lt;font style=&quot;font-size: 6px;&quot;&gt;&lt;br&gt;&lt;/font&gt;&lt;/div&gt;" style="text;html=1;strokeColor=#314354;fillColor=#647687;align=left;verticalAlign=top;whiteSpace=wrap;rounded=0;fontSize=6;fontColor=#ffffff;" parent="1" vertex="1">
          <mxGeometry x="-590" y="272.5" width="130" height="31" as="geometry" />
        </mxCell>
        <mxCell id="TQ_MRLcAaZdKzZCNnS61-12" value="&lt;div&gt;&lt;font style=&quot;font-size: 6px;&quot;&gt;- Send the moveJ with the coordinates&lt;br&gt;&lt;/font&gt;&lt;/div&gt;&lt;div&gt;&lt;font style=&quot;font-size: 6px;&quot;&gt;&lt;br&gt;&lt;/font&gt;&lt;/div&gt;" style="text;html=1;strokeColor=#314354;fillColor=#647687;align=left;verticalAlign=top;whiteSpace=wrap;rounded=0;fontSize=6;fontColor=#ffffff;" parent="1" vertex="1">
          <mxGeometry x="-590" y="318" width="130" height="24" as="geometry" />
        </mxCell>
        <mxCell id="TQ_MRLcAaZdKzZCNnS61-13" value="&lt;div&gt;&lt;font style=&quot;font-size: 6px;&quot;&gt;- Move to the location and wait&lt;br&gt;&lt;/font&gt;&lt;/div&gt;&lt;div&gt;&lt;font style=&quot;font-size: 6px;&quot;&gt;- Pick the object when the encoder count matches &lt;br&gt;&lt;/font&gt;&lt;/div&gt;" style="text;html=1;strokeColor=#314354;fillColor=#647687;align=left;verticalAlign=top;whiteSpace=wrap;rounded=0;fontSize=6;fontColor=#ffffff;" parent="1" vertex="1">
          <mxGeometry x="-590" y="362.75" width="170" height="25.5" as="geometry" />
        </mxCell>
        <mxCell id="TQ_MRLcAaZdKzZCNnS61-14" value="&lt;div&gt;&lt;font style=&quot;font-size: 6px;&quot;&gt;- Pick the object when the encoder count matches &lt;br&gt;&lt;/font&gt;&lt;/div&gt;&lt;div&gt;&lt;font style=&quot;font-size: 6px;&quot;&gt;- &lt;br&gt;&lt;/font&gt;&lt;/div&gt;" style="text;html=1;strokeColor=#314354;fillColor=#647687;align=left;verticalAlign=top;whiteSpace=wrap;rounded=0;fontSize=6;fontColor=#ffffff;" parent="1" vertex="1">
          <mxGeometry x="-590" y="403.75" width="170" height="26.5" as="geometry" />
        </mxCell>
        <mxCell id="TQ_MRLcAaZdKzZCNnS61-15" value="&lt;div&gt;&lt;font style=&quot;font-size: 6px;&quot;&gt;- Check the vacumm after picking up.&lt;br&gt;&lt;/font&gt;&lt;/div&gt;&lt;div&gt;- If picked up. drop and send signal &lt;br&gt;&lt;/div&gt;&lt;div&gt;- Type of signal &lt;br&gt;&lt;/div&gt;" style="text;html=1;strokeColor=#314354;fillColor=#647687;align=left;verticalAlign=top;whiteSpace=wrap;rounded=0;fontSize=6;fontColor=#ffffff;" parent="1" vertex="1">
          <mxGeometry x="-590" y="443" width="170" height="33.5" as="geometry" />
        </mxCell>
      </root>
    </mxGraphModel>
  </diagram>
</mxfile>
